<?xml version="1.0" encoding="utf-8"?>
<!-- Generator: Adobe Illustrator 14.0.0, SVG Export Plug-In . SVG Version: 6.00 Build 43363)  -->
<!DOCTYPE svg PUBLIC "-//W3C//DTD SVG 1.1 Tiny//EN" "http://www.w3.org/Graphics/SVG/1.1/DTD/svg11-tiny.dtd">
<svg version="1.1" baseProfile="tiny" id="Layer_1" xmlns="http://www.w3.org/2000/svg" xmlns:xlink="http://www.w3.org/1999/xlink"
	 x="0px" y="0px" width="100px" height="100px" viewBox="0 0 100 100" xml:space="preserve">
<g>
	<path fill="#231F20" d="M8.917,33.198c0.243-3.937,3.886-7.736,6.909-9.889c6.544-4.661,3.921,9.067,3.324,10.971
		c-3.671,11.689-6.521,23.806-8.064,35.967c-0.066,0.521,1.848,0.151,1.909-0.328c1.291-10.167,3.67-20.097,6.312-29.988
		c1.303-4.878,4.663-11.29,2.566-16.324c-3.21-7.705-14.646,6.204-14.886,10.108C6.965,34.035,8.88,33.796,8.917,33.198
		L8.917,33.198z"/>
</g>
<g>
	<path fill="#231F20" d="M26.746,34.227c-0.129,12.058-2.49,23.881-3.739,35.841c-0.062,0.594,1.861,0.204,1.914-0.309
		c1.256-12.03,3.626-23.921,3.756-36.05C28.682,33.302,26.752,33.602,26.746,34.227L26.746,34.227z"/>
</g>
<g>
	<path fill="#231F20" d="M29.943,45.275c-4.595-0.315-9.195-0.34-13.799-0.341c-0.814,0-2.021,1.235-0.714,1.235
		c4.604,0.001,9.204,0.026,13.799,0.341C30.059,46.567,31.253,45.365,29.943,45.275L29.943,45.275z"/>
</g>
<g>
	<path fill="#231F20" d="M43.412,30.664c-4.612-0.113-8.788,4.43-9.268,8.84c-0.496,4.545,5.775,5.072,8.873,5.434
		c0.783,0.091,2.038-1.004,0.735-1.156c-2.493-0.291-6.25-0.45-7.459-3.088c-1.518-3.315,3.073-8.955,6.383-8.874
		C43.445,31.838,44.721,30.696,43.412,30.664L43.412,30.664z"/>
</g>
<g>
	<path fill="#231F20" d="M39.653,37.609c-2.271,0-4.543,0-6.814,0c-0.452,0-1.02,0.129-1.267,0.556
		c-0.227,0.392,0.192,0.678,0.553,0.678c2.271,0,4.543,0,6.814,0c0.452,0,1.02-0.129,1.267-0.556
		C40.434,37.896,40.015,37.609,39.653,37.609L39.653,37.609z"/>
</g>
<g>
	<path fill="#231F20" d="M45.99,36.109c0.033,9.259,0.479,18.51,0.511,27.769c0.003,0.917,1.947,0.553,1.944-0.195
		c-0.033-9.259-0.479-18.509-0.511-27.769C47.931,34.997,45.988,35.361,45.99,36.109L45.99,36.109z"/>
</g>
<g>
	<path fill="#231F20" d="M56.627,46.494c0.002-8.356,0.041-16.706,0.682-25.042c0.075-0.975-1.889-0.681-1.953,0.161
		c-0.641,8.336-0.681,16.686-0.682,25.042C54.674,47.643,56.627,47.329,56.627,46.494L56.627,46.494z"/>
</g>
<g>
	<path fill="#231F20" d="M75.297,47.448c4.7,1.549,9.396,5.134,4.598,9.933c-5.289,5.289-13.957,1.264-15.938-4.705
		c-2.913-8.779,14.78-26.274,22.81-20.77c0.438,0.3,2.062-0.484,1.824-0.646c-5.133-3.518-12.12,0.709-16.311,3.926
		c-5.891,4.521-13.939,13.386-8.75,21.023c3.238,4.765,10.468,5.115,15.265,2.765c2.072-1.016,4.506-2.553,4.921-5.054
		c0.767-4.623-3.195-6.001-6.824-7.197C76.468,46.583,74.759,47.271,75.297,47.448L75.297,47.448z"/>
</g>
<g>
	<path fill="#231F20" d="M75.357,38.06c5.446,4.161,9.447,7.15,10.72,14.323c1.406,7.921-3.028,14.788-9.541,18.825
		c-0.847,0.524,1.109,0.38,1.5,0.137c5.424-3.362,9.933-8.64,10.14-15.335c0.134-4.3-0.698-8.509-3.155-12.097
		c-1.902-2.777-5.23-4.54-7.851-6.542C76.711,37.021,74.99,37.779,75.357,38.06L75.357,38.06z"/>
</g>
</svg>
