<?xml version="1.0" encoding="utf-8"?>
<!-- Generator: Adobe Illustrator 14.0.0, SVG Export Plug-In . SVG Version: 6.00 Build 43363)  -->
<!DOCTYPE svg PUBLIC "-//W3C//DTD SVG 1.1 Tiny//EN" "http://www.w3.org/Graphics/SVG/1.1/DTD/svg11-tiny.dtd">
<svg version="1.1" baseProfile="tiny" id="Layer_1" xmlns="http://www.w3.org/2000/svg" xmlns:xlink="http://www.w3.org/1999/xlink"
	 x="0px" y="0px" width="1008px" height="612px" viewBox="0 0 1008 612" xml:space="preserve">
<g>
	<path fill="#231F20" d="M203.829,150.762c-14.411,14.175-33.979,24.261-45.161,41.53c-1.995,3.081-4.591,7.48-4.972,11.176
		c-0.47,4.558,3.877,8.662,6.297,12.083c6.241,8.819,16.027,15.054,25.058,20.653c21.68,13.442,44.71,25.727,68.552,34.803
		c23.93,9.109,48.983,14.478,73.784,20.595c13.456,3.319,27.03,6.297,40.801,7.956c11.073,1.334,23.033,1.983,33.739-1.718
		c0.174-0.06,0.809-0.324,0.563-0.596c-16.179-17.867-38.971-27.343-61.15-35.443c-24.329-8.885-49.048-15.89-69.321-32.749
		c-10.458-8.697-19.698-18.783-29.405-28.283c-7.516-7.356-13.536-16.416-21.91-22.848c-15.201-11.674-26.965,7.736-33.639,19.226
		c-13.285,22.872-23.261,46.938-31.069,72.205c-3.771,12.202-6.379,24.774-10.249,36.926c-2.22,6.971-4.459,13.929-6.43,20.976
		c-2.486,8.885-4.616,17.925-5.64,27.105c-0.696,6.247-1.247,13.971,2.355,19.497c3.004,4.61,10.094,6.181,15.173,6.541
		c6.76,0.479,13.592-1.316,19.902-3.558c17.184-6.105,32.602-17.397,46.632-28.782c11.788-9.565,22.452-20.101,32.874-31.095
		c7.935-8.371,15.728-16.929,22.141-26.547c6.415-9.62,10.614-20.365,13.428-31.537c7.736-30.715,18.212-60.551,29.081-90.277
		c8.515-23.288,17.186-46.525,24.774-70.137c0.144-0.448-1.744-0.201-1.911,0.32c-9.743,30.316-21.256,60.016-31.963,89.996
		c-5.36,15.009-10.469,30.107-15.064,45.369c-4.026,13.369-6.542,27.335-11.698,40.328c-7.774,19.589-23.085,35.063-37.461,49.996
		c-12.071,12.539-25.453,23.985-39.609,34.097c-14.292,10.208-33.086,22.672-51.532,20.844c-6.939-0.688-13.16-4.05-14.895-11.073
		c-1.98-8.02-0.183-17.099,1.359-25.025c3.196-16.426,9.119-32.121,13.312-48.282c7.539-29.058,16.813-57.843,30.676-84.556
		c4.352-8.386,9.162-16.889,14.668-24.565c2.881-4.017,6.418-8.36,11.072-10.346c6.166-2.631,12.681,3.33,16.708,7.224
		c3.67,3.549,6.856,7.587,10.146,11.479c3.948,4.671,8.578,8.747,12.899,13.067c9.529,9.529,18.923,19.205,29.701,27.35
		c19.693,14.882,44.732,20.982,67.533,29.455c11.961,4.445,23.741,9.456,34.724,15.991c4.903,2.918,9.542,6.254,13.91,9.92
		c2.16,1.813,4.185,3.778,6.151,5.797c2.802,2.878-2.849,2.914-4.938,3.231c-11.578,1.759-23.802-0.025-35.246-1.931
		c-11.205-1.866-22.275-4.5-33.291-7.248c-25.344-6.322-50.703-12.006-75.079-21.608c-13.577-5.349-26.385-12.021-39.13-19.074
		c-10.282-5.69-20.66-11.19-30.46-17.699c-9.732-6.464-18.011-14.1-24.056-24.198c-2.398-4.006,0.41-8.329,2.224-11.984
		c2.278-4.589,5.392-8.421,8.925-12.111c11.557-12.067,25.992-20.887,37.874-32.574
		C206.038,150.213,204.178,150.418,203.829,150.762L203.829,150.762z"/>
</g>
</svg>
